HIERARCHY
ROOT Hips
{
	OFFSET 0.00000 0.00000 0.00000
	CHANNELS 6 Xposition Yposition Zposition Zrotation Yrotation Xrotation 
	JOINT RightUpLegDummy
	{
		OFFSET 0 0 0
		CHANNELS 3 Zrotation Yrotation Xrotation
		JOINT RightUpLeg
		{
			OFFSET -3.52197 -3.41223 0.04002
			CHANNELS 3 Zrotation Yrotation Xrotation
			JOINT RightLeg
			{
				OFFSET 0.00006 -17.42390 1.60435
				CHANNELS 3 Zrotation Yrotation Xrotation
				JOINT RightFoot
				{
					OFFSET 0.06153 -16.50078 -1.63901
					CHANNELS 3 Zrotation Yrotation Xrotation
					JOINT RightToes
					{
						OFFSET 0.00298 -1.73825 3.34613
						CHANNELS 3 Zrotation Yrotation Xrotation
						End Site
						{
							OFFSET 0.00480 -0.05416 3.85043
						}
					}
				}
			}
		}
	}
	JOINT SpineDummy
	{
		OFFSET 0 0 0
		CHANNELS 3 Zrotation Yrotation Xrotation
		JOINT Spine
		{
			OFFSET 0.00000 4.68130 0.00000
			CHANNELS 3 Zrotation Yrotation Xrotation
			JOINT Spine1
			{
				OFFSET -0.00000 10.10138 0.05002
				CHANNELS 3 Zrotation Yrotation Xrotation
				JOINT HEadDummy
				{
					OFFSET 0 0 0
					CHANNELS 3 Zrotation Yrotation Xrotation
					JOINT Head
					{
						OFFSET -0.00000 3.43865 0.00438
						CHANNELS 3 Zrotation Yrotation Xrotation
						End Site
						{
							OFFSET -0.11417 5.02924 0.98962
						}
					}
				}
				JOINT LeftShoulder1Dummy
				{
					OFFSET 0 0 0
					CHANNELS 3 Zrotation Yrotation Xrotation
					JOINT LeftShoulder1
					{
						OFFSET 3.53937 -0.14262 -0.08662
						CHANNELS 3 Zrotation Yrotation Xrotation
						JOINT LeftArm
						{
							OFFSET 4.04833 -0.00133 0.12681
							CHANNELS 3 Zrotation Yrotation Xrotation
							JOINT LeftForeArm
							{
								OFFSET 10.33880 -0.01036 -0.55515
								CHANNELS 3 Zrotation Yrotation Xrotation
								JOINT LeftHand
								{
									OFFSET 8.69677 0.07543 0.40060
									CHANNELS 3 Zrotation Yrotation Xrotation
									End Site
									{
										OFFSET 5.28377 -0.21905 0.59205
									}
								}
							}
						}
					}
				}
				JOINT RightShoulderDummy
				{
					OFFSET 0 0 0
					CHANNELS 3 Zrotation Yrotation Xrotation
					JOINT RightShoulder
					{
						OFFSET -3.53937 -0.14262 -0.08660
						CHANNELS 3 Zrotation Yrotation Xrotation
						JOINT RightArm
						{
							OFFSET -4.04833 -0.00133 0.12683
							CHANNELS 3 Zrotation Yrotation Xrotation
							JOINT RightForeArm
							{
								OFFSET -10.37987 -0.01039 -0.55511
								CHANNELS 3 Zrotation Yrotation Xrotation
								JOINT RightHand
								{
									OFFSET -8.67398 0.07538 0.40058
									CHANNELS 3 Zrotation Yrotation Xrotation
									End Site
									{
										OFFSET -5.24810 -0.21916 0.59204
									}
								}
							}
						}
					}
				}
			}
		}
	}
	JOINT LeftUpLegDummy
	{
		OFFSET 0 0 0
		CHANNELS 3 Zrotation Yrotation Xrotation
		JOINT LeftUpLeg
		{
			OFFSET 3.52197 -3.41223 0.04002
			CHANNELS 3 Zrotation Yrotation Xrotation
			JOINT LeftLeg
			{
				OFFSET -0.00012 -17.42399 1.60337
				CHANNELS 3 Zrotation Yrotation Xrotation
				JOINT LeftFoot
				{
					OFFSET -0.09972 -16.50070 -1.63802
					CHANNELS 3 Zrotation Yrotation Xrotation
					JOINT LeftToes
					{
						OFFSET -0.01575 -1.73823 3.34611
						CHANNELS 3 Zrotation Yrotation Xrotation
						End Site
						{
							OFFSET 0.03150 -0.01868 3.85031
						}
					}
				}
			}
		}
	}
}
MOTION
Frames: 8
Frame Time: 0.033333
-1.0326 40.1362 -4.0324 -1.6555 -5.5980 -1.6268 0.0000 0.0000 0.0000 0.2376 -1.9864 1.4911 -1.3815 -2.5674 3.3025 0.1995 -0.0267 -2.7835 0.0000 -0.0000 0.0000 0.0000 0.0000 0.0000 -0.7006 -1.3688 1.5246 4.5216 -2.2620 0.7048 -0.0000 0.0000 -0.0000 1.1037 -0.6881 -4.1370 -0.0000 0.0000 -0.0000 -34.0242 -2.8646 2.5507 -45.6814 -15.9692 -17.4112 -9.9863 5.0218 51.8219 13.5576 -3.2557 -0.9840 -0.0000 0.0000 -0.0000 34.6586 5.1473 3.5192 39.3457 4.8551 -16.9664 10.7345 -1.0396 23.7958 -13.2077 1.4576 -0.7675 0.0000 0.0000 0.0000 4.7342 3.2699 1.4792 2.3179 8.0466 5.8878 -2.4173 0.1672 -4.6400 0.0000 0.0000 -0.0000
-1.0326 40.1362 -4.0227 -1.6438 -5.4963 -1.6033 0.0000 0.0000 0.0000 0.2259 -2.0001 1.4858 -1.3875 -2.6671 3.3167 0.2114 -0.0274 -2.8038 0.0000 -0.0000 0.0000 0.0000 0.0000 0.0000 -0.7309 -1.3378 1.5261 4.4912 -2.2210 0.6628 -0.0000 0.0000 -0.0000 1.0921 -1.2619 -4.0582 -0.0000 0.0000 -0.0000 -34.0112 -2.8918 2.5607 -45.5247 -16.0907 -17.3507 -10.0583 5.0215 51.8068 13.6774 -3.4867 -1.0185 -0.0000 0.0000 -0.0000 34.6704 5.1493 3.5211 39.4881 4.7956 -17.0372 10.6569 -0.9587 24.3682 -12.9419 1.7692 -0.7843 0.0000 0.0000 0.0000 4.7188 3.2511 1.4338 2.3193 7.9644 5.9106 -2.4002 0.1661 -4.6440 0.0000 0.0000 -0.0000
-1.0318 40.1362 -4.0039 -1.6543 -5.3476 -1.5560 0.0000 0.0000 0.0000 0.2487 -1.9800 1.4639 -1.4283 -2.8489 3.3566 0.2507 -0.0298 -2.8458 0.0000 -0.0000 0.0000 0.0000 0.0000 0.0000 -0.7113 -1.2599 1.5467 4.4067 -2.1198 0.5437 -0.0000 0.0000 -0.0000 1.0093 -1.6516 -3.8571 -0.0000 0.0000 -0.0000 -33.9281 -2.9434 2.5759 -45.3610 -16.1948 -17.2441 -10.1962 5.0289 51.5136 13.5454 -3.5237 -1.0125 -0.0000 0.0000 -0.0000 34.7293 5.1584 3.5297 39.6955 4.6762 -16.9804 10.6206 -0.5912 24.6310 -12.6020 1.9275 -0.7791 0.0000 0.0000 0.0000 4.7473 3.2797 1.3440 2.2718 7.7913 5.9921 -2.3624 0.1637 -4.6945 0.0000 0.0000 -0.0000
-1.0269 40.1362 -3.9780 -1.6724 -5.2240 -1.5463 0.0000 0.0000 0.0000 0.2755 -1.9477 1.4946 -1.4874 -2.9999 3.3891 0.3103 -0.0335 -2.8986 0.0000 -0.0000 0.0000 0.0000 0.0000 0.0000 -0.6516 -1.1724 1.5769 4.3247 -2.0128 0.4600 -0.0000 0.0000 -0.0000 0.8794 -1.2894 -3.6288 -0.0000 0.0000 -0.0000 -33.8223 -2.9698 2.5795 -45.3281 -16.1783 -17.1596 -10.3095 5.0406 51.0913 13.1845 -3.1942 -0.9493 -0.0000 0.0000 -0.0000 34.7761 5.1655 3.5367 39.8486 4.6937 -16.7282 10.6891 -0.1843 24.4373 -12.5348 2.0916 -0.7914 0.0000 0.0000 0.0000 4.7843 3.3290 1.3273 2.2018 7.6308 6.0500 -2.3119 0.1604 -4.7650 0.0000 0.0000 -0.0000
-1.0150 40.1362 -3.9425 -1.6705 -5.0974 -1.5845 0.0000 0.0000 0.0000 0.2580 -1.9547 1.6243 -1.5272 -3.0997 3.3522 0.3572 -0.0363 -2.9428 0.0000 -0.0000 0.0000 0.0000 0.0000 0.0000 -0.6378 -1.1296 1.5279 4.3227 -1.9734 0.5700 -0.0000 0.0000 -0.0000 0.7689 -0.6842 -3.4873 -0.0000 0.0000 -0.0000 -33.7884 -2.9292 2.5611 -45.3466 -16.1514 -17.1401 -10.3421 5.0453 50.9256 13.0491 -2.9674 -0.9154 -0.0000 0.0000 -0.0000 34.7644 5.1561 3.5318 39.9336 4.9942 -16.4392 10.7845 -0.0441 24.3938 -12.7281 2.5529 -0.8512 0.0000 0.0000 0.0000 4.7663 3.3244 1.4206 2.1703 7.5241 6.0129 -2.2546 0.1568 -4.8081 0.0000 0.0000 -0.0000
-1.0002 40.1362 -3.8998 -1.6530 -4.9288 -1.6110 0.0000 0.0000 0.0000 0.2061 -1.9982 1.7887 -1.5420 -3.2103 3.2479 0.3870 -0.0382 -2.9692 0.0000 -0.0000 0.0000 0.0000 0.0000 0.0000 -0.7006 -1.1448 1.3434 4.4114 -2.0155 0.8703 -0.0000 0.0000 -0.0000 0.7083 -0.4601 -3.4000 -0.0000 0.0000 -0.0000 -33.8541 -2.8460 2.5323 -45.2983 -16.2055 -17.1781 -10.3174 5.0419 51.0474 13.2494 -3.1519 -0.9497 -0.0000 0.0000 -0.0000 34.7177 5.1452 3.5233 39.9848 5.5099 -16.2635 10.8353 -0.1288 24.5389 -12.8992 2.9627 -0.9055 0.0000 0.0000 0.0000 4.7117 3.2812 1.5252 2.1582 7.4120 5.9229 -2.1920 0.1527 -4.8242 0.0000 0.0000 -0.0000
-0.9841 40.1362 -3.8586 -1.6363 -4.7421 -1.5898 0.0000 0.0000 0.0000 0.1574 -2.0336 1.8860 -1.5618 -3.3545 3.1732 0.4345 -0.0412 -2.9996 0.0000 -0.0000 0.0000 0.0000 0.0000 0.0000 -0.7850 -1.1685 1.1282 4.5288 -2.0696 1.1418 -0.0000 0.0000 -0.0000 0.6880 -0.5093 -3.2381 -0.0000 0.0000 -0.0000 -33.9697 -2.7853 2.5155 -45.1923 -16.2580 -17.2352 -10.2839 5.0380 51.1847 13.4337 -3.4393 -0.9945 -0.0000 0.0000 -0.0000 34.6653 5.1464 3.5192 40.0172 6.0248 -16.1702 10.8635 -0.1834 24.4115 -12.8533 2.8756 -0.8932 0.0000 0.0000 0.0000 4.6722 3.2645 1.5531 2.1115 7.2575 5.8720 -2.1252 0.1484 -4.8475 0.0000 0.0000 -0.0000
-0.9654 40.1348 -3.8247 -1.6227 -4.5924 -1.5582 0.0000 0.0000 0.0000 0.1192 -2.0440 1.8996 -1.6034 -3.4801 3.2150 0.4985 -0.0451 -3.0673 0.0000 -0.0000 0.0000 0.0000 0.0000 0.0000 -0.8349 -1.1396 1.0524 4.6188 -2.0564 1.1759 -0.0000 0.0000 -0.0000 0.7071 -0.4400 -3.0072 -0.0000 0.0000 -0.0000 -34.0736 -2.7665 2.5139 -45.1219 -16.2184 -17.2815 -10.2537 5.0365 51.2455 13.4198 -3.4767 -0.9975 -0.0000 0.0000 -0.0000 34.6237 5.1508 3.5173 40.0038 6.3616 -16.0337 10.9199 -0.0742 23.9965 -12.6615 2.4905 -0.8402 0.0000 0.0000 0.0000 4.6414 3.2669 1.5308 2.0574 7.1231 5.8970 -2.0651 0.1446 -4.8981 0.0000 0.0000 -0.0000
